<svg xmlns="http://www.w3.org/2000/svg" width="18" height="18" viewBox="0 0 18 18" fill="none">
  <path d="M12 13.5C12 12.7044 11.6839 11.9413 11.1213 11.3787C10.5587 10.8161 9.79565 10.5 9 10.5M9 10.5C8.20435 10.5 7.44129 10.8161 6.87868 11.3787C6.31607 11.9413 6 12.7044 6 13.5M9 10.5C10.2426 10.5 11.25 9.49264 11.25 8.25C11.25 7.00736 10.2426 6 9 6C7.75736 6 6.75 7.00736 6.75 8.25C6.75 9.49264 7.75736 10.5 9 10.5ZM6 1.5V3M12 1.5V3M3.75 3H14.25C15.0784 3 15.75 3.67157 15.75 4.5V15C15.75 15.8284 15.0784 16.5 14.25 16.5H3.75C2.92157 16.5 2.25 15.8284 2.25 15V4.5C2.25 3.67157 2.92157 3 3.75 3Z" stroke="black" stroke-linecap="round" stroke-linejoin="round"/>
</svg>