<svg xmlns="http://www.w3.org/2000/svg" width="18" height="18" viewBox="0 0 18 18" fill="none">
  <path d="M7.72485 15.75C7.85039 15.9783 8.03494 16.1688 8.25922 16.3014C8.4835 16.434 8.73929 16.504 8.99985 16.504C9.26042 16.504 9.5162 16.434 9.74048 16.3014C9.96477 16.1688 10.1493 15.9783 10.2749 15.75M4.5 6C4.5 4.80653 4.97411 3.66193 5.81802 2.81802C6.66193 1.97411 7.80653 1.5 9 1.5C10.1935 1.5 11.3381 1.97411 12.182 2.81802C13.0259 3.66193 13.5 4.80653 13.5 6C13.5 11.25 15.75 12.75 15.75 12.75H2.25C2.25 12.75 4.5 11.25 4.5 6Z" stroke="#2D3748" stroke-linecap="round" stroke-linejoin="round"/>
</svg>