<svg xmlns="http://www.w3.org/2000/svg" width="56" height="56" viewBox="0 0 56 56" fill="none">
  <path d="M18.375 6.125H4.375C3.4085 6.125 2.625 6.9085 2.625 7.875V38.5C2.625 39.4665 3.4085 40.25 4.375 40.25H18.375C19.3415 40.25 20.125 39.4665 20.125 38.5V7.875C20.125 6.9085 19.3415 6.125 18.375 6.125Z" fill="#FFB588"/>
  <path d="M18.375 6.125H4.375C3.4085 6.125 2.625 6.9085 2.625 7.875V14C2.625 14.9665 3.4085 15.75 4.375 15.75H18.375C19.3415 15.75 20.125 14.9665 20.125 14V7.875C20.125 6.9085 19.3415 6.125 18.375 6.125Z" fill="#FFB588"/>
  <path d="M16.625 6.125H20.125V15.75H16.625V6.125Z" fill="#FFB588"/>
  <path d="M16.625 15.75H20.125V40.25H16.625V15.75Z" fill="#FFB588"/>
  <path d="M51.625 6.125H37.625C36.6585 6.125 35.875 6.9085 35.875 7.875V38.5C35.875 39.4665 36.6585 40.25 37.625 40.25H51.625C52.5915 40.25 53.375 39.4665 53.375 38.5V7.875C53.375 6.9085 52.5915 6.125 51.625 6.125Z" fill="#FFB588"/>
  <path d="M51.625 6.125H37.625C36.6585 6.125 35.875 6.9085 35.875 7.875V14C35.875 14.9665 36.6585 15.75 37.625 15.75H51.625C52.5915 15.75 53.375 14.9665 53.375 14V7.875C53.375 6.9085 52.5915 6.125 51.625 6.125Z" fill="#FFB588"/>
  <path d="M35.875 6.125H39.375V15.75H35.875V6.125Z" fill="#FFB588"/>
  <path d="M35.875 15.75H39.375V40.25H35.875V15.75Z" fill="#FFB588"/>
  <path d="M35 2.625H21C20.0335 2.625 19.25 3.4085 19.25 4.375V42C19.25 42.9665 20.0335 43.75 21 43.75H35C35.9665 43.75 36.75 42.9665 36.75 42V4.375C36.75 3.4085 35.9665 2.625 35 2.625Z" fill="#FFDECA"/>
  <path d="M35 2.625H21C20.0335 2.625 19.25 3.4085 19.25 4.375V10.5C19.25 11.4665 20.0335 12.25 21 12.25H35C35.9665 12.25 36.75 11.4665 36.75 10.5V4.375C36.75 3.4085 35.9665 2.625 35 2.625Z" fill="#FFDECA"/>
  <path d="M54.25 7.875V31.6094H52.5V30.4745C52.2191 30.5742 51.9231 30.6251 51.625 30.625H39.375V28.875H51.625C51.857 28.8747 52.0794 28.7825 52.2434 28.6184C52.4075 28.4544 52.4997 28.232 52.5 28V23.4745C52.2191 23.5742 51.9231 23.6251 51.625 23.625H39.375V21.875H51.625C51.857 21.8747 52.0794 21.7825 52.2434 21.6184C52.4075 21.4544 52.4997 21.232 52.5 21V16.4745C52.2191 16.5742 51.9231 16.6251 51.625 16.625H39.375V14.875H51.625C51.857 14.8747 52.0794 14.7825 52.2434 14.6184C52.4075 14.4544 52.4997 14.232 52.5 14V7.875C52.4997 7.64302 52.4075 7.42061 52.2434 7.25657C52.0794 7.09253 51.857 7.00026 51.625 7H39.375V5.25H51.625C52.321 5.25078 52.9882 5.52759 53.4803 6.01971C53.9724 6.51182 54.2492 7.17905 54.25 7.875ZM41.125 18.375H39.375V20.125H41.125V18.375ZM42.875 18.375V20.125H50.75V18.375H42.875ZM41.125 25.375H39.375V27.125H41.125V25.375ZM42.875 25.375V27.125H50.75V25.375H42.875ZM52.5 33.4688V35C52.4997 35.232 52.4075 35.4544 52.2434 35.6184C52.0794 35.7825 51.857 35.8747 51.625 35.875H39.375V37.625H51.625C51.9231 37.6251 52.2191 37.5742 52.5 37.4745V38.5C52.4997 38.732 52.4075 38.9544 52.2434 39.1184C52.0794 39.2825 51.857 39.3747 51.625 39.375H39.375V41.125H51.625C52.321 41.1242 52.9882 40.8474 53.4803 40.3553C53.9724 39.8632 54.2492 39.196 54.25 38.5V33.25H52.5V33.4688ZM41.125 32.375H39.375V34.125H41.125V32.375ZM42.875 32.375V34.125H50.75V32.375H42.875ZM3.5 7.875C3.50026 7.64302 3.59253 7.42061 3.75657 7.25657C3.92061 7.09253 4.14302 7.00026 4.375 7H16.625V5.25H4.375C3.67905 5.25078 3.01182 5.52759 2.51971 6.01971C2.02759 6.51182 1.75078 7.17905 1.75 7.875V9.73438H3.5V7.875ZM16.625 39.375H4.375C4.14302 39.3747 3.92061 39.2825 3.75657 39.1184C3.59253 38.9544 3.50026 38.732 3.5 38.5V37.4745C3.78095 37.5742 4.07688 37.6251 4.375 37.625H16.625V35.875H4.375C4.14302 35.8747 3.92061 35.7825 3.75657 35.6184C3.59253 35.4544 3.50026 35.232 3.5 35V30.4745C3.78095 30.5742 4.07688 30.6251 4.375 30.625H16.625V28.875H4.375C4.14302 28.8747 3.92061 28.7825 3.75657 28.6184C3.59253 28.4544 3.50026 28.232 3.5 28V23.4745C3.78095 23.5742 4.07688 23.6251 4.375 23.625H16.625V21.875H4.375C4.14302 21.8747 3.92061 21.7825 3.75657 21.6184C3.59253 21.4544 3.50026 21.232 3.5 21V16.4745C3.78095 16.5742 4.07688 16.6251 4.375 16.625H16.625V14.875H4.375C4.14302 14.8747 3.92061 14.7825 3.75657 14.6184C3.59253 14.4544 3.50026 14.232 3.5 14V11.2656H1.75V38.5C1.75081 39.1959 2.02763 39.8632 2.51974 40.3553C3.01185 40.8474 3.67906 41.1242 4.375 41.125H16.625V39.375ZM7 20.125V18.375H5.25V20.125H7ZM16.625 20.125V18.375H8.75V20.125H16.625ZM7 27.125V25.375H5.25V27.125H7ZM16.625 27.125V25.375H8.75V27.125H16.625ZM7 34.125V32.375H5.25V34.125H7ZM16.625 34.125V32.375H8.75V34.125H16.625ZM18.375 42V22.75H20.125V24.5C20.1253 24.732 20.2175 24.9544 20.3816 25.1184C20.5456 25.2825 20.768 25.3747 21 25.375H35C35.232 25.3747 35.4544 25.2825 35.6184 25.1184C35.7825 24.9544 35.8747 24.732 35.875 24.5V19.9745C35.5941 20.0742 35.2981 20.1251 35 20.125H21C20.7019 20.1251 20.4059 20.0742 20.125 19.9745V21.1094H18.375V4.375C18.3758 3.67905 18.6526 3.01182 19.1447 2.51971C19.6368 2.02759 20.304 1.75078 21 1.75H35C35.696 1.75078 36.3632 2.02759 36.8553 2.51971C37.3474 3.01182 37.6242 3.67905 37.625 4.375V42C37.6242 42.696 37.3474 43.3632 36.8553 43.8553C36.3632 44.3474 35.696 44.6242 35 44.625H21C20.304 44.6242 19.6368 44.3474 19.1447 43.8553C18.6526 43.3632 18.3758 42.696 18.375 42ZM20.125 10.5C20.1253 10.732 20.2175 10.9544 20.3816 11.1184C20.5456 11.2825 20.768 11.3747 21 11.375H35C35.232 11.3747 35.4544 11.2825 35.6184 11.1184C35.7825 10.9544 35.8747 10.732 35.875 10.5V4.375C35.8747 4.14302 35.7825 3.92061 35.6184 3.75657C35.4544 3.59253 35.232 3.50026 35 3.5H21C20.768 3.50026 20.5456 3.59253 20.3816 3.75657C20.2175 3.92061 20.1253 4.14302 20.125 4.375V10.5ZM35.875 17.5V12.9745C35.5941 13.0742 35.2981 13.1251 35 13.125H21C20.7019 13.1251 20.4059 13.0742 20.125 12.9745V17.5C20.1253 17.732 20.2175 17.9544 20.3816 18.1184C20.5456 18.2825 20.768 18.3747 21 18.375H35C35.232 18.3747 35.4544 18.2825 35.6184 18.1184C35.7825 17.9544 35.8747 17.732 35.875 17.5ZM35.875 42V40.9745C35.5941 41.0742 35.2981 41.1251 35 41.125H21C20.7019 41.1251 20.4059 41.0742 20.125 40.9745V42C20.1253 42.232 20.2175 42.4544 20.3816 42.6184C20.5456 42.7825 20.768 42.8747 21 42.875H35C35.232 42.8747 35.4544 42.7825 35.6184 42.6184C35.7825 42.4544 35.8747 42.232 35.875 42ZM20.125 31.5C20.1253 31.732 20.2175 31.9544 20.3816 32.1184C20.5456 32.2825 20.768 32.3747 21 32.375H35C35.232 32.3747 35.4544 32.2825 35.6184 32.1184C35.7825 31.9544 35.8747 31.732 35.875 31.5V26.9745C35.5941 27.0742 35.2981 27.1251 35 27.125H21C20.7019 27.1251 20.4059 27.0742 20.125 26.9745V31.5ZM20.125 38.5C20.1253 38.732 20.2175 38.9544 20.3816 39.1184C20.5456 39.2825 20.768 39.3747 21 39.375H35C35.232 39.3747 35.4544 39.2825 35.6184 39.1184C35.7825 38.9544 35.8747 38.732 35.875 38.5V33.9745C35.5941 34.0742 35.2981 34.1251 35 34.125H21C20.7019 34.1251 20.4059 34.0742 20.125 33.9745V38.5ZM21.875 16.625H23.625V14.875H21.875V16.625ZM25.375 16.625H34.125V14.875H25.375V16.625ZM21.875 21.875V23.625H23.625V21.875H21.875ZM25.375 21.875V23.625H34.125V21.875H25.375ZM23.625 28.875H21.875V30.625H23.625V28.875ZM34.125 28.875H25.375V30.625H34.125V28.875ZM23.625 35.875H21.875V37.625H23.625V35.875ZM34.125 35.875H25.375V37.625H34.125V35.875ZM44.625 42.875H46.375V51.625C46.375 51.8571 46.2828 52.0796 46.1187 52.2437C45.9546 52.4078 45.7321 52.5 45.5 52.5H30.4745C30.2934 53.0115 29.9582 53.4544 29.5151 53.7676C29.072 54.0808 28.5426 54.2489 28 54.2489C27.4574 54.2489 26.928 54.0808 26.4849 53.7676C26.0418 53.4544 25.7066 53.0115 25.5255 52.5H10.5C10.2679 52.5 10.0454 52.4078 9.88128 52.2437C9.71719 52.0796 9.625 51.8571 9.625 51.625V42.875H11.375V50.75H25.5255C25.6568 50.3815 25.8685 50.0468 26.1451 49.7701C26.4218 49.4935 26.7565 49.2818 27.125 49.1505V46.375H28.875V49.1505C29.2435 49.2818 29.5782 49.4935 29.8549 49.7701C30.1315 50.0468 30.3432 50.3815 30.4745 50.75H44.625V42.875ZM28.875 51.625C28.875 51.4519 28.8237 51.2828 28.7275 51.1389C28.6314 50.995 28.4947 50.8828 28.3348 50.8166C28.175 50.7504 27.999 50.7331 27.8293 50.7668C27.6596 50.8006 27.5037 50.8839 27.3813 51.0063C27.2589 51.1287 27.1756 51.2846 27.1418 51.4543C27.1081 51.624 27.1254 51.8 27.1916 51.9599C27.2578 52.1197 27.37 52.2564 27.5139 52.3525C27.6578 52.4487 27.8269 52.5 28 52.5C28.232 52.4997 28.4544 52.4075 28.6184 52.2434C28.7825 52.0794 28.8747 51.857 28.875 51.625Z" fill="black"/>
</svg>