<svg xmlns="http://www.w3.org/2000/svg" width="18" height="18" viewBox="0 0 18 18" fill="none">
  <path d="M6 3H4.5C4.10218 3 3.72064 3.15804 3.43934 3.43934C3.15804 3.72064 3 4.10218 3 4.5V15C3 15.3978 3.15804 15.7794 3.43934 16.0607C3.72064 16.342 4.10218 16.5 4.5 16.5H13.5C13.8978 16.5 14.2794 16.342 14.5607 16.0607C14.842 15.7794 15 15.3978 15 15V14.625M12 3H13.5C13.763 3.00027 14.0214 3.06971 14.2491 3.20135C14.4769 3.33299 14.666 3.5222 14.7975 3.75M6 13.5H6.75M6.75 1.5H11.25C11.6642 1.5 12 1.83579 12 2.25V3.75C12 4.16421 11.6642 4.5 11.25 4.5H6.75C6.33579 4.5 6 4.16421 6 3.75V2.25C6 1.83579 6.33579 1.5 6.75 1.5ZM13.815 7.20748C13.9613 7.06122 14.1349 6.94521 14.326 6.86605C14.5171 6.7869 14.7219 6.74615 14.9287 6.74615C15.1356 6.74615 15.3404 6.7869 15.5315 6.86605C15.7226 6.94521 15.8962 7.06122 16.0425 7.20748C16.1888 7.35374 16.3048 7.52738 16.3839 7.71848C16.4631 7.90958 16.5038 8.11439 16.5038 8.32124C16.5038 8.52808 16.4631 8.73289 16.3839 8.92399C16.3048 9.11509 16.1888 9.28873 16.0425 9.43498L12.7125 12.75L9.75 13.5L10.4925 10.5375L13.815 7.20748Z" stroke="#2D3748" stroke-linecap="round" stroke-linejoin="round"/>
</svg>