<svg xmlns="http://www.w3.org/2000/svg" width="18" height="18" viewBox="0 0 18 18" fill="none">
  <path d="M15.9074 11.9175C15.4303 13.0459 14.684 14.0402 13.7338 14.8135C12.7837 15.5868 11.6585 16.1156 10.4568 16.3536C9.25501 16.5916 8.01325 16.5316 6.84005 16.1788C5.66684 15.8261 4.59791 15.1913 3.7267 14.33C2.8555 13.4687 2.20855 12.4071 1.84241 11.238C1.47628 10.0689 1.40211 8.82787 1.62638 7.62348C1.85066 6.41909 2.36656 5.28797 3.12897 4.32902C3.89138 3.37007 4.8771 2.61249 5.99994 2.1225M16.5 9C16.5 8.01509 16.306 7.03982 15.9291 6.12987C15.5522 5.21993 14.9997 4.39314 14.3033 3.6967C13.6069 3.00026 12.7801 2.44781 11.8701 2.0709C10.9602 1.69399 9.98491 1.5 9 1.5V9H16.5Z" stroke="#2D3748" stroke-linecap="round" stroke-linejoin="round"/>
</svg>