<svg xmlns="http://www.w3.org/2000/svg" width="18" height="18" viewBox="0 0 18 18" fill="none">
  <path d="M7.5 6V3.75C7.5 3.3 7.2 3 6.75 3H4.5C4.30109 3 4.11032 3.07902 3.96967 3.21967C3.82902 3.36032 3.75 3.55109 3.75 3.75V6M14.25 6V3.75C14.25 3.3 13.95 3 13.5 3H11.25C11.0511 3 10.8603 3.07902 10.7197 3.21967C10.579 3.36032 10.5 3.55109 10.5 3.75V6M3 6H15C15.4142 6 15.75 6.33579 15.75 6.75V14.25C15.75 14.6642 15.4142 15 15 15H3C2.58579 15 2.25 14.6642 2.25 14.25V6.75C2.25 6.33579 2.58579 6 3 6Z" stroke="black" stroke-linecap="round" stroke-linejoin="round"/>
</svg>