<svg xmlns="http://www.w3.org/2000/svg" width="56" height="56" viewBox="0 0 56 56" fill="none">
  <g clip-path="url(#clip0_2612_16123)">
    <path d="M24.5 55.125H31.5V31.5C31.5 31.2679 31.4078 31.0454 31.2437 30.8813C31.0796 30.7172 30.8571 30.625 30.625 30.625H25.375C25.1429 30.625 24.9204 30.7172 24.7563 30.8813C24.5922 31.0454 24.5 31.2679 24.5 31.5V55.125Z" fill="#F2A15F"/>
    <path d="M35.875 55.125H42.875V42C42.875 41.7679 42.7828 41.5454 42.6187 41.3813C42.4546 41.2172 42.2321 41.125 42 41.125H36.75C36.5179 41.125 36.2954 41.2172 36.1313 41.3813C35.9672 41.5454 35.875 41.7679 35.875 42V55.125Z" fill="#F2A15F"/>
    <path d="M47.25 55.125H54.25V49C54.25 48.7679 54.1578 48.5454 53.9937 48.3813C53.8296 48.2172 53.6071 48.125 53.375 48.125H48.125C47.8929 48.125 47.6704 48.2172 47.5063 48.3813C47.3422 48.5454 47.25 48.7679 47.25 49V55.125Z" fill="#F2A15F"/>
    <path d="M13.125 55.125H20.125V19.25C20.125 19.0179 20.0328 18.7954 19.8687 18.6313C19.7046 18.4672 19.4821 18.375 19.25 18.375H14C13.7679 18.375 13.5454 18.4672 13.3813 18.6313C13.2172 18.7954 13.125 19.0179 13.125 19.25V55.125Z" fill="#F2A15F"/>
    <path d="M1.75 55.125H8.75V8.75C8.75 8.51794 8.65781 8.29538 8.49372 8.13128C8.32962 7.96719 8.10706 7.875 7.875 7.875H2.625C2.39294 7.875 2.17038 7.96719 2.00628 8.13128C1.84219 8.29538 1.75 8.51794 1.75 8.75V55.125Z" fill="#F2A15F"/>
    <path d="M27.125 50.75V32.375C27.125 31.9109 27.3094 31.4658 27.6376 31.1376C27.9658 30.8094 28.4109 30.625 28.875 30.625H25.375C25.1429 30.625 24.9204 30.7172 24.7563 30.8813C24.5922 31.0454 24.5 31.2679 24.5 31.5V55.125H31.5V52.5H28.875C28.4109 52.5 27.9658 52.3156 27.6376 51.9874C27.3094 51.6593 27.125 51.2141 27.125 50.75Z" fill="#EB610D"/>
    <path d="M38.5 50.75V42.875C38.5 42.4109 38.6844 41.9658 39.0126 41.6376C39.3408 41.3094 39.7859 41.125 40.25 41.125H36.75C36.5179 41.125 36.2954 41.2172 36.1313 41.3813C35.9672 41.5454 35.875 41.7679 35.875 42V55.125H42.875V52.5H40.25C39.7859 52.5 39.3408 52.3156 39.0126 51.9874C38.6844 51.6592 38.5 51.2141 38.5 50.75Z" fill="#EB610D"/>
    <path d="M49.875 50.75V49.875C49.875 49.4109 50.0594 48.9658 50.3876 48.6376C50.7158 48.3094 51.1609 48.125 51.625 48.125H48.125C47.8929 48.125 47.6704 48.2172 47.5063 48.3813C47.3422 48.5454 47.25 48.7679 47.25 49V55.125H54.25V52.5H51.625C51.1609 52.5 50.7158 52.3156 50.3876 51.9874C50.0594 51.6592 49.875 51.2141 49.875 50.75Z" fill="#EB610D"/>
    <path d="M15.75 50.75V20.125C15.75 19.6609 15.9344 19.2158 16.2626 18.8876C16.5908 18.5594 17.0359 18.375 17.5 18.375H14C13.7679 18.375 13.5454 18.4672 13.3813 18.6313C13.2172 18.7954 13.125 19.0179 13.125 19.25V55.125H20.125V52.5H17.5C17.0359 52.5 16.5908 52.3156 16.2626 51.9874C15.9344 51.6592 15.75 51.2141 15.75 50.75Z" fill="#EB610D"/>
    <path d="M6.125 52.5C5.66087 52.5 5.21575 52.3156 4.88756 51.9874C4.55937 51.6592 4.375 51.2141 4.375 50.75V9.625C4.375 9.16087 4.55937 8.71575 4.88756 8.38756C5.21575 8.05937 5.66087 7.875 6.125 7.875H2.625C2.39294 7.875 2.17038 7.96719 2.00628 8.13128C1.84219 8.29538 1.75 8.51794 1.75 8.75V55.125H8.75V52.5H6.125Z" fill="#EB610D"/>
    <path d="M42 27.125C49.2487 27.125 55.125 21.2487 55.125 14C55.125 6.75126 49.2487 0.875 42 0.875C34.7513 0.875 28.875 6.75126 28.875 14C28.875 21.2487 34.7513 27.125 42 27.125Z" fill="#F2A15F"/>
    <path d="M42 25.375C48.2822 25.375 53.375 20.2822 53.375 14C53.375 7.71776 48.2822 2.625 42 2.625C35.7178 2.625 30.625 7.71776 30.625 14C30.625 20.2822 35.7178 25.375 42 25.375Z" fill="#F2A15F"/>
    <path d="M42 24.5C47.799 24.5 52.5 19.799 52.5 14C52.5 8.20101 47.799 3.5 42 3.5C36.201 3.5 31.5 8.20101 31.5 14C31.5 19.799 36.201 24.5 42 24.5Z" fill="#FEEBC8"/>
    <path d="M53.375 47.25H48.125C47.6609 47.25 47.2158 47.4344 46.8876 47.7626C46.5594 48.0908 46.375 48.5359 46.375 49V54.25H43.75V42C43.75 41.5359 43.5656 41.0908 43.2374 40.7626C42.9092 40.4344 42.4641 40.25 42 40.25H36.75C36.2859 40.25 35.8408 40.4344 35.5126 40.7626C35.1844 41.0908 35 41.5359 35 42V54.25H32.375V31.5C32.375 31.0359 32.1906 30.5907 31.8624 30.2626C31.5343 29.9344 31.0891 29.75 30.625 29.75H25.375C24.9109 29.75 24.4658 29.9344 24.1376 30.2626C23.8094 30.5907 23.625 31.0359 23.625 31.5V54.25H21V19.25C21 18.7859 20.8156 18.3408 20.4874 18.0126C20.1592 17.6844 19.7141 17.5 19.25 17.5H14C13.5359 17.5 13.0908 17.6844 12.7626 18.0126C12.4344 18.3408 12.25 18.7859 12.25 19.25V54.25H9.625V8.75C9.625 8.28587 9.44063 7.84075 9.11244 7.51256C8.78425 7.18437 8.33913 7 7.875 7H2.625C2.16087 7 1.71575 7.18437 1.38756 7.51256C1.05937 7.84075 0.875 8.28587 0.875 8.75V12.25H2.625V8.75H7.875V54.25H2.625V17.5H0.875V56H55.125V49C55.125 48.5359 54.9406 48.0908 54.6124 47.7626C54.2842 47.4344 53.8391 47.25 53.375 47.25ZM14 54.25V19.25H19.25V54.25H14ZM25.375 54.25V31.5H30.625V54.25H25.375ZM36.75 54.25V42H42V54.25H36.75ZM48.125 54.25V49H53.375V54.25H48.125Z" fill="#424242"/>
    <path d="M0.875 14H2.625V15.7509H0.875V14Z" fill="#424242"/>
    <path d="M3.75659 1.49512L4.99403 0.25768L6.74376 2.00742L5.50633 3.24485L3.75659 1.49512Z" fill="#424242"/>
    <path d="M54.25 43.5752L41.7007 32.5913C41.5413 32.452 41.3367 32.3752 41.125 32.3752H38.0117L20.7725 13.4113C20.6904 13.3212 20.5904 13.2491 20.4789 13.1999C20.3674 13.1506 20.2469 13.1252 20.125 13.1252H17.8622L8.4962 3.7627L7.26245 4.99557L16.8875 14.6206C17.0503 14.7825 17.2703 14.874 17.5 14.8752H19.7382L36.9757 33.8391C37.0579 33.9295 37.1582 34.0016 37.27 34.0509C37.3818 34.1002 37.5028 34.1255 37.625 34.1252H40.796L52.7957 44.6252H50.75V46.3752H55.125C55.357 46.3752 55.5796 46.283 55.7437 46.1189C55.9078 45.9548 56 45.7323 56 45.5002V41.1252H54.25V43.5752Z" fill="#424242"/>
    <path d="M42.875 22.75V21H43.3125C44.3568 21 45.3583 20.5852 46.0967 19.8467C46.8352 19.1083 47.25 18.1068 47.25 17.0625C47.25 16.0182 46.8352 15.0167 46.0967 14.2783C45.3583 13.5398 44.3568 13.125 43.3125 13.125H40.6875C40.1073 13.125 39.5509 12.8945 39.1407 12.4843C38.7305 12.0741 38.5 11.5177 38.5 10.9375C38.5 10.3573 38.7305 9.80094 39.1407 9.3907C39.5509 8.98047 40.1073 8.75 40.6875 8.75H45.5V7H42.875V5.25H41.125V7H40.6875C39.6432 7 38.6417 7.41484 37.9033 8.15327C37.1648 8.89169 36.75 9.89321 36.75 10.9375C36.75 11.9818 37.1648 12.9833 37.9033 13.7217C38.6417 14.4602 39.6432 14.875 40.6875 14.875H43.3125C43.8927 14.875 44.4491 15.1055 44.8593 15.5157C45.2695 15.9259 45.5 16.4823 45.5 17.0625C45.5 17.6427 45.2695 18.1991 44.8593 18.6093C44.4491 19.0195 43.8927 19.25 43.3125 19.25H38.5V21H41.125V22.75H42.875Z" fill="#424242"/>
    <path d="M54.1424 12.3653L55.8766 12.1343C55.7928 11.5051 55.6662 10.8824 55.4977 10.2705L53.8125 10.736C53.9594 11.271 54.0696 11.8153 54.1424 12.3653Z" fill="#424242"/>
    <path d="M42 28C45.7117 27.9956 49.2701 26.5192 51.8946 23.8946C54.5192 21.2701 55.9956 17.7117 56 14H54.25C54.2459 17.0277 53.1196 19.9463 51.0887 22.1918C49.0579 24.4373 46.2666 25.8502 43.2546 26.1574C40.2426 26.4646 37.2236 25.6442 34.7812 23.8549C32.3389 22.0656 30.6466 19.4344 30.0315 16.4699C29.4163 13.5053 29.922 10.418 31.4508 7.80471C32.9796 5.19138 35.423 3.2376 38.3086 2.32101C41.1941 1.40443 44.3171 1.59014 47.0737 2.84223C49.8303 4.09433 52.0249 6.32391 53.2332 9.1L54.8362 8.4C53.8267 6.08686 52.2106 4.08964 50.159 2.61968C48.1075 1.14971 45.6966 0.261681 43.1817 0.0495463C40.6668 -0.162588 38.1413 0.309066 35.8725 1.4146C33.6037 2.52014 31.6759 4.21843 30.2931 6.32978C28.9104 8.44113 28.1241 10.887 28.0175 13.4086C27.9109 15.9302 28.4879 18.4337 29.6875 20.6542C30.8871 22.8748 32.6646 24.7297 34.832 26.0228C36.9995 27.3159 39.4761 27.9991 42 28Z" fill="#424242"/>
  </g>
  <defs>
    <clipPath id="clip0_2612_16123">
      <rect width="56" height="56" fill="white"/>
    </clipPath>
  </defs>
</svg>