<svg xmlns="http://www.w3.org/2000/svg" width="18" height="18" viewBox="0 0 18 18" fill="none">
  <path d="M11.6999 2.02499C10.0958 1.4018 8.32613 1.34922 6.68785 1.87606C5.04957 2.4029 3.6423 3.47711 2.70211 4.91849C1.76193 6.35987 1.34604 8.08074 1.5242 9.7924C1.70236 11.5041 2.46373 13.1024 3.6806 14.3193C4.89746 15.5361 6.49579 16.2975 8.20745 16.4757C9.91911 16.6538 11.64 16.2379 13.0814 15.2977C14.5227 14.3576 15.597 12.9503 16.1238 11.312C16.6506 9.67372 16.5981 7.9041 15.9749 6.29999M10.0499 7.95L14.2499 3.75M10.5 9C10.5 9.82843 9.82843 10.5 9 10.5C8.17157 10.5 7.5 9.82843 7.5 9C7.5 8.17157 8.17157 7.5 9 7.5C9.82843 7.5 10.5 8.17157 10.5 9Z" stroke="#2D3748" stroke-linecap="round" stroke-linejoin="round"/>
</svg>