<svg xmlns="http://www.w3.org/2000/svg" width="200" height="201" viewBox="0 0 200 201" fill="none">
  <g opacity="0.02">
    <path d="M193.75 178.609H112.104C111.542 176.449 110.413 174.478 108.835 172.899C107.256 171.321 105.285 170.192 103.125 169.63V159.859H134.375C137.689 159.855 140.866 158.537 143.21 156.194C145.553 153.85 146.871 150.673 146.875 147.359V141.109H140.625V147.359C140.623 149.016 139.964 150.604 138.792 151.776C137.621 152.948 136.032 153.607 134.375 153.609H65.625C63.968 153.607 62.3794 152.948 61.2078 151.776C60.0361 150.604 59.377 149.016 59.375 147.359V69.2339H53.125V147.359C53.1287 150.673 54.4469 153.85 56.7903 156.194C59.1337 158.537 62.3109 159.855 65.625 159.859H96.875V169.63C94.7148 170.192 92.7438 171.321 91.1654 172.899C89.5869 174.478 88.4582 176.449 87.8957 178.609H6.25V184.859H87.8957C88.5877 187.543 90.1523 189.921 92.3434 191.619C94.5346 193.317 97.228 194.239 100 194.239C102.772 194.239 105.465 193.317 107.657 191.619C109.848 189.921 111.412 187.543 112.104 184.859H193.75V178.609ZM100 187.984C98.7639 187.984 97.5555 187.617 96.5277 186.931C95.4999 186.244 94.6988 185.268 94.2258 184.126C93.7527 182.984 93.6289 181.727 93.8701 180.515C94.1113 179.302 94.7065 178.189 95.5806 177.314C96.4547 176.44 97.5683 175.845 98.7807 175.604C99.9931 175.363 101.25 175.487 102.392 175.96C103.534 176.433 104.51 177.234 105.197 178.262C105.883 179.289 106.25 180.498 106.25 181.734C106.248 183.391 105.589 184.979 104.417 186.151C103.246 187.323 101.657 187.982 100 187.984ZM59.375 58.1792C61.2733 59.2816 63.4298 59.8612 65.625 59.8589H134.375C136.57 59.8606 138.727 59.2803 140.625 58.1772V134.859H146.875V19.2339C146.871 15.9198 145.553 12.7426 143.21 10.3992C140.866 8.05576 137.689 6.73761 134.375 6.73389H65.625C62.3109 6.73761 59.1337 8.05576 56.7903 10.3992C54.4469 12.7426 53.1287 15.9198 53.125 19.2339V62.9839H59.375V58.1792ZM59.375 19.2339C59.377 17.5769 60.0361 15.9883 61.2078 14.8166C62.3794 13.645 63.968 12.9859 65.625 12.9839H134.375C136.032 12.9859 137.621 13.645 138.792 14.8166C139.964 15.9883 140.623 17.5769 140.625 19.2339V47.3589C140.623 49.0159 139.964 50.6045 138.792 51.7761C137.621 52.9478 136.032 53.6069 134.375 53.6089H65.625C63.968 53.6069 62.3794 52.9478 61.2078 51.7761C60.0361 50.6045 59.377 49.0159 59.375 47.3589V19.2339ZM68.75 66.1089C67.9212 66.1089 67.1263 66.4381 66.5403 67.0242C65.9542 67.6102 65.625 68.4051 65.625 69.2339V144.234C65.625 145.063 65.9542 145.858 66.5403 146.444C67.1263 147.03 67.9212 147.359 68.75 147.359H131.25C132.079 147.359 132.874 147.03 133.46 146.444C134.046 145.858 134.375 145.063 134.375 144.234V69.2339C134.375 68.4051 134.046 67.6102 133.46 67.0242C132.874 66.4381 132.079 66.1089 131.25 66.1089H68.75ZM128.125 72.3589V91.1089H71.875V72.3589H128.125ZM128.125 97.3589V116.109H71.875V97.3589H128.125ZM71.875 141.109V122.359H128.125V141.109H71.875ZM84.375 84.8589H78.125V78.6089H84.375V84.8589ZM96.875 84.8589H90.625V78.6089H96.875V84.8589ZM109.375 84.8589H103.125V78.6089H109.375V84.8589ZM121.875 84.8589H115.625V78.6089H121.875V84.8589ZM78.125 109.859V103.609H84.375V109.859H78.125ZM96.875 109.859H90.625V103.609H96.875V109.859ZM109.375 109.859H103.125V103.609H109.375V109.859ZM121.875 109.859H115.625V103.609H121.875V109.859ZM78.125 128.609H84.375V134.859H78.125V128.609ZM90.625 128.609H96.875V134.859H90.625V128.609ZM103.125 128.609H109.375V134.859H103.125V128.609ZM115.625 128.609H121.875V134.859H115.625V128.609ZM71.875 25.4839H65.625V19.2339H71.875V25.4839ZM71.875 47.3589H65.625V31.7339H71.875V47.3589Z" fill="#151615"/>
  </g>
</svg>