<svg xmlns="http://www.w3.org/2000/svg" width="18" height="18" viewBox="0 0 18 18" fill="none">
  <path d="M9 3.75C10.125 2.625 11.055 2.25 12.375 2.25C13.469 2.25 14.5182 2.6846 15.2918 3.45818C16.0654 4.23177 16.5 5.28098 16.5 6.375C16.5 8.0925 15.3675 9.405 14.25 10.5L9 15.75L3.75 10.5C2.625 9.4125 1.5 8.1 1.5 6.375C1.5 5.28098 1.9346 4.23177 2.70818 3.45818C3.48177 2.6846 4.53098 2.25 5.625 2.25C6.945 2.25 7.875 2.625 9 3.75ZM9 3.75L6.78008 5.97C6.62769 6.12128 6.50675 6.30122 6.42422 6.49945C6.34169 6.69767 6.29919 6.91028 6.29919 7.125C6.29919 7.33972 6.34169 7.55233 6.42422 7.75055C6.50675 7.94878 6.62769 8.12872 6.78008 8.28C7.39508 8.895 8.37758 8.9175 9.03008 8.3325L10.5826 6.9075C10.9717 6.5544 11.4784 6.35879 12.0038 6.35879C12.5293 6.35879 13.0359 6.5544 13.4251 6.9075L15.6451 8.9025M13.5 11.25L12 9.75M11.25 13.5L9.75 12" stroke="black" stroke-linecap="round" stroke-linejoin="round"/>
</svg>