<svg xmlns="http://www.w3.org/2000/svg" width="56" height="56" viewBox="0 0 56 56" fill="none">
  <path d="M32.375 2.625H23.625C23.1418 2.625 22.75 3.01675 22.75 3.5V8.75C22.75 9.23325 23.1418 9.625 23.625 9.625H32.375C32.8582 9.625 33.25 9.23325 33.25 8.75V3.5C33.25 3.01675 32.8582 2.625 32.375 2.625Z" fill="#F6AD55"/>
  <path d="M30.625 13.125H25.375L26.25 9.625H29.75L30.625 13.125Z" fill="#D5D5D3"/>
  <path d="M30.1875 11.375H25.8125L26.25 9.625H29.75L30.1875 11.375Z" fill="#CECECC"/>
  <path d="M52.5 13.125H43.75C43.2668 13.125 42.875 13.5168 42.875 14V19.25C42.875 19.7332 43.2668 20.125 43.75 20.125H52.5C52.9832 20.125 53.375 19.7332 53.375 19.25V14C53.375 13.5168 52.9832 13.125 52.5 13.125Z" fill="#F6AD55"/>
  <path d="M50.75 23.625H45.5L46.375 20.125H49.875L50.75 23.625Z" fill="#D5D5D3"/>
  <path d="M50.3125 21.875H45.9375L46.375 20.125H49.875L50.3125 21.875Z" fill="#CECECC"/>
  <path d="M12.25 13.125H3.5C3.01675 13.125 2.625 13.5168 2.625 14V19.25C2.625 19.7332 3.01675 20.125 3.5 20.125H12.25C12.7332 20.125 13.125 19.7332 13.125 19.25V14C13.125 13.5168 12.7332 13.125 12.25 13.125Z" fill="#F6AD55"/>
  <path d="M10.5 23.625H5.25L6.125 20.125H9.625L10.5 23.625Z" fill="#D5D5D3"/>
  <path d="M10.0625 21.875H5.6875L6.125 20.125H9.625L10.0625 21.875Z" fill="#CECECC"/>
  <path d="M52.5 34.125H43.75C43.2668 34.125 42.875 34.5168 42.875 35V40.25C42.875 40.7332 43.2668 41.125 43.75 41.125H52.5C52.9832 41.125 53.375 40.7332 53.375 40.25V35C53.375 34.5168 52.9832 34.125 52.5 34.125Z" fill="#F6AD55"/>
  <path d="M50.75 44.625H45.5L46.375 41.125H49.875L50.75 44.625Z" fill="#D5D5D3"/>
  <path d="M50.3125 42.875H45.9375L46.375 41.125H49.875L50.3125 42.875Z" fill="#CECECC"/>
  <path d="M12.25 34.125H3.5C3.01675 34.125 2.625 34.5168 2.625 35V40.25C2.625 40.7332 3.01675 41.125 3.5 41.125H12.25C12.7332 41.125 13.125 40.7332 13.125 40.25V35C13.125 34.5168 12.7332 34.125 12.25 34.125Z" fill="#F6AD55"/>
  <path d="M10.5 44.625H5.25L6.125 41.125H9.625L10.5 44.625Z" fill="#D5D5D3"/>
  <path d="M10.0625 42.875H5.6875L6.125 41.125H9.625L10.0625 42.875Z" fill="#CECECC"/>
  <path d="M32.375 42.875H23.625C23.1418 42.875 22.75 43.2668 22.75 43.75V49C22.75 49.4832 23.1418 49.875 23.625 49.875H32.375C32.8582 49.875 33.25 49.4832 33.25 49V43.75C33.25 43.2668 32.8582 42.875 32.375 42.875Z" fill="#F6AD55"/>
  <path d="M30.625 53.375H25.375L26.25 49.875H29.75L30.625 53.375Z" fill="#D5D5D3"/>
  <path d="M30.1875 51.625H25.8125L26.25 49.875H29.75L30.1875 51.625Z" fill="#CECECC"/>
  <path d="M32.375 22.75H23.625C23.1418 22.75 22.75 23.1418 22.75 23.625V28.875C22.75 29.3582 23.1418 29.75 23.625 29.75H32.375C32.8582 29.75 33.25 29.3582 33.25 28.875V23.625C33.25 23.1418 32.8582 22.75 32.375 22.75Z" fill="#F6AD55"/>
  <path d="M30.625 33.25H25.375L26.25 29.75H29.75L30.625 33.25Z" fill="#D5D5D3"/>
  <path d="M30.1875 31.5H25.8125L26.25 29.75H29.75L30.1875 31.5Z" fill="#CECECC"/>
  <path d="M32.375 21.875H23.625C23.161 21.8755 22.7162 22.0601 22.3882 22.3882C22.0601 22.7162 21.8755 23.161 21.875 23.625V28.875C21.8755 29.339 22.0601 29.7838 22.3882 30.1118C22.7162 30.4399 23.161 30.6245 23.625 30.625H26.0043L25.5668 32.375H24.5V34.125H31.5V32.375H30.4332L29.9957 30.625H32.375C32.839 30.6245 33.2838 30.4399 33.6118 30.1118C33.9399 29.7838 34.1245 29.339 34.125 28.875V23.625C34.1245 23.161 33.9399 22.7162 33.6118 22.3882C33.2838 22.0601 32.839 21.8755 32.375 21.875ZM28.6293 32.375H27.3707L27.8082 30.625H28.1918L28.6293 32.375ZM32.375 28.875H23.625V23.625H32.375L32.3761 28.875H32.375ZM3.5 21H5.87934L5.44184 22.75H4.375V24.5H11.375V22.75H10.3082L9.87066 21H12.25C12.714 20.9995 13.1588 20.8149 13.4868 20.4868C13.8149 20.1588 13.9994 19.714 14 19.25V14C13.9994 13.536 13.8149 13.0912 13.4868 12.7632C13.1588 12.4351 12.714 12.2506 12.25 12.25H3.5C3.03604 12.2506 2.59124 12.4351 2.26317 12.7632C1.9351 13.0912 1.75055 13.536 1.75 14V14.875H3.5V14H12.25V19.25H3.5V16.625H1.75V19.25C1.75055 19.714 1.9351 20.1588 2.26317 20.4868C2.59124 20.8149 3.03604 20.9995 3.5 21ZM8.06684 21L8.50434 22.75H7.24566L7.68316 21H8.06684ZM32.375 1.75H23.625C23.161 1.75055 22.7162 1.9351 22.3882 2.26317C22.0601 2.59124 21.8755 3.03604 21.875 3.5V8.75C21.8755 9.21396 22.0601 9.65876 22.3882 9.98683C22.7162 10.3149 23.161 10.4994 23.625 10.5H26.0043L25.5668 12.25H24.5V14H31.5V12.25H30.4332L29.9957 10.5H32.375C32.839 10.4994 33.2838 10.3149 33.6118 9.98683C33.9399 9.65876 34.1245 9.21396 34.125 8.75V3.5C34.1245 3.03604 33.9399 2.59124 33.6118 2.26317C33.2838 1.9351 32.839 1.75055 32.375 1.75ZM28.6293 12.25H27.3707L27.8082 10.5H28.1918L28.6293 12.25ZM32.375 8.75H23.625V3.5H32.375L32.3761 8.75H32.375ZM32.375 42H23.625C23.161 42.0005 22.7162 42.1851 22.3882 42.5132C22.0601 42.8412 21.8755 43.286 21.875 43.75V49C21.8755 49.464 22.0601 49.9088 22.3882 50.2368C22.7162 50.5649 23.161 50.7495 23.625 50.75H26.0043L25.5668 52.5H24.5V54.25H31.5V52.5H30.4332L29.9957 50.75H32.375C32.839 50.7495 33.2838 50.5649 33.6118 50.2368C33.9399 49.9088 34.1245 49.464 34.125 49V43.75C34.1245 43.286 33.9399 42.8412 33.6118 42.5132C33.2838 42.1851 32.839 42.0005 32.375 42ZM28.6293 52.5H27.3707L27.8082 50.75H28.1918L28.6293 52.5ZM32.375 49H23.625V43.75H32.375L32.3761 49H32.375ZM12.25 42C12.714 41.9995 13.1588 41.8149 13.4868 41.4868C13.8149 41.1588 13.9994 40.714 14 40.25V35C13.9994 34.536 13.8149 34.0912 13.4868 33.7632C13.1588 33.4351 12.714 33.2505 12.25 33.25H3.5C3.03604 33.2505 2.59124 33.4351 2.26317 33.7632C1.9351 34.0912 1.75055 34.536 1.75 35V40.25C1.75055 40.714 1.9351 41.1588 2.26317 41.4868C2.59124 41.8149 3.03604 41.9995 3.5 42H5.87934L5.44184 43.75H4.375V45.5H11.375V43.75H10.3082L9.87066 42H12.25ZM3.5 35H12.25L12.2511 40.25H3.5V35ZM8.50434 43.75H7.24566L7.68316 42H8.06684L8.50434 43.75ZM52.5 12.25H43.75C43.286 12.2506 42.8412 12.4351 42.5132 12.7632C42.1851 13.0912 42.0005 13.536 42 14V19.25C42.0005 19.714 42.1851 20.1588 42.5132 20.4868C42.8412 20.8149 43.286 20.9995 43.75 21H46.1293L45.6918 22.75H44.625V24.5H51.625V22.75H50.5582L50.1207 21H52.5C52.964 20.9995 53.4088 20.8149 53.7368 20.4868C54.0649 20.1588 54.2495 19.714 54.25 19.25V14C54.2495 13.536 54.0649 13.0912 53.7368 12.7632C53.4088 12.4351 52.964 12.2506 52.5 12.25ZM48.7543 22.75H47.4957L47.9332 21H48.3168L48.7543 22.75ZM52.5 19.25H43.75V14H52.5L52.5011 19.25H52.5ZM52.5 33.25H43.75C43.286 33.2505 42.8412 33.4351 42.5132 33.7632C42.1851 34.0912 42.0005 34.536 42 35V40.25C42.0005 40.714 42.1851 41.1588 42.5132 41.4868C42.8412 41.8149 43.286 41.9995 43.75 42H46.1293L45.6918 43.75H44.625V45.5H51.625V43.75H50.5582L50.1207 42H52.5C52.964 41.9995 53.4088 41.8149 53.7368 41.4868C54.0649 41.1588 54.2495 40.714 54.25 40.25V38.5H52.5V40.25H43.75V35H52.5V36.75H54.25V35C54.2495 34.536 54.0649 34.0912 53.7368 33.7632C53.4088 33.4351 52.964 33.2505 52.5 33.25ZM48.3168 42L48.7543 43.75H47.4957L47.9332 42H48.3168ZM28.875 15.75V20.125H27.125V15.75H28.875ZM16.2969 19.4417L20.6719 22.9417L19.5781 24.3083L15.2031 20.8083L16.2969 19.4417ZM20.5148 33.397L21.4855 34.853L16.2355 38.353L15.2648 36.897L20.5148 33.397ZM36.4219 24.3083L35.3281 22.9417L39.7031 19.4417L40.7969 20.8083L36.4219 24.3083ZM39.7648 38.353L34.5148 34.853L35.4855 33.397L40.7355 36.897L39.7648 38.353ZM28.875 35.875V40.25H27.125V35.875H28.875ZM7 31.5V26.25H8.75V31.5H7ZM13.5887 11.242L12.6613 9.758L19.6612 5.383L20.5888 6.867L13.5887 11.242ZM13.5887 46.508L20.5888 50.883L19.6612 52.367L12.6613 47.992L13.5887 46.508ZM42.4113 11.242L35.4113 6.867L36.3387 5.383L43.3387 9.758L42.4113 11.242ZM42.4113 46.508L43.3387 47.992L36.3387 52.367L35.4113 50.883L42.4113 46.508ZM49 26.25V31.5H47.25V26.25H49Z" fill="black"/>
</svg>