<svg xmlns="http://www.w3.org/2000/svg" width="56" height="56" viewBox="0 0 56 56" fill="none">
  <path d="M33.25 13.125H22.75C21.7835 13.125 21 13.9085 21 14.875V40.25C21 41.2165 21.7835 42 22.75 42H33.25C34.2165 42 35 41.2165 35 40.25V14.875C35 13.9085 34.2165 13.125 33.25 13.125Z" fill="#FEEBC8"/>
  <path d="M33.25 13.125H22.75C21.7835 13.125 21 13.9085 21 14.875V19.25C21 20.2165 21.7835 21 22.75 21H33.25C34.2165 21 35 20.2165 35 19.25V14.875C35 13.9085 34.2165 13.125 33.25 13.125Z" fill="#FEEBC8"/>
  <path d="M12.25 2.625H3.5C3.01675 2.625 2.625 3.01675 2.625 3.5V8.75C2.625 9.23325 3.01675 9.625 3.5 9.625H12.25C12.7332 9.625 13.125 9.23325 13.125 8.75V3.5C13.125 3.01675 12.7332 2.625 12.25 2.625Z" fill="#ED8936"/>
  <path d="M10.5 13.125H5.25L6.125 9.625H9.625L10.5 13.125Z" fill="#D5D5D3"/>
  <path d="M10.0625 11.375H5.6875L6.125 9.625H9.625L10.0625 11.375Z" fill="#CECECC"/>
  <path d="M52.5 2.625H43.75C43.2668 2.625 42.875 3.01675 42.875 3.5V8.75C42.875 9.23325 43.2668 9.625 43.75 9.625H52.5C52.9832 9.625 53.375 9.23325 53.375 8.75V3.5C53.375 3.01675 52.9832 2.625 52.5 2.625Z" fill="#ED8936"/>
  <path d="M50.75 13.125H45.5L46.375 9.625H49.875L50.75 13.125Z" fill="#D5D5D3"/>
  <path d="M50.3125 11.375H45.9375L46.375 9.625H49.875L50.3125 11.375Z" fill="#CECECC"/>
  <path d="M12.25 22.75H3.5C3.01675 22.75 2.625 23.1418 2.625 23.625V28.875C2.625 29.3582 3.01675 29.75 3.5 29.75H12.25C12.7332 29.75 13.125 29.3582 13.125 28.875V23.625C13.125 23.1418 12.7332 22.75 12.25 22.75Z" fill="#ED8936"/>
  <path d="M10.5 33.25H5.25L6.125 29.75H9.625L10.5 33.25Z" fill="#D5D5D3"/>
  <path d="M10.0625 31.5H5.6875L6.125 29.75H9.625L10.0625 31.5Z" fill="#CECECC"/>
  <path d="M52.5 22.75H43.75C43.2668 22.75 42.875 23.1418 42.875 23.625V28.875C42.875 29.3582 43.2668 29.75 43.75 29.75H52.5C52.9832 29.75 53.375 29.3582 53.375 28.875V23.625C53.375 23.1418 52.9832 22.75 52.5 22.75Z" fill="#ED8936"/>
  <path d="M50.75 33.25H45.5L46.375 29.75H49.875L50.75 33.25Z" fill="#D5D5D3"/>
  <path d="M50.3125 31.5H45.9375L46.375 29.75H49.875L50.3125 31.5Z" fill="#CECECC"/>
  <path d="M12.25 42.875H3.5C3.01675 42.875 2.625 43.2668 2.625 43.75V49C2.625 49.4832 3.01675 49.875 3.5 49.875H12.25C12.7332 49.875 13.125 49.4832 13.125 49V43.75C13.125 43.2668 12.7332 42.875 12.25 42.875Z" fill="#ED8936"/>
  <path d="M10.5 53.375H5.25L6.125 49.875H9.625L10.5 53.375Z" fill="#D5D5D3"/>
  <path d="M10.0625 51.625H5.6875L6.125 49.875H9.625L10.0625 51.625Z" fill="#CECECC"/>
  <path d="M52.5 42.875H43.75C43.2668 42.875 42.875 43.2668 42.875 43.75V49C42.875 49.4832 43.2668 49.875 43.75 49.875H52.5C52.9832 49.875 53.375 49.4832 53.375 49V43.75C53.375 43.2668 52.9832 42.875 52.5 42.875Z" fill="#ED8936"/>
  <path d="M50.75 53.375H45.5L46.375 49.875H49.875L50.75 53.375Z" fill="#D5D5D3"/>
  <path d="M50.3125 51.625H45.9375L46.375 49.875H49.875L50.3125 51.625Z" fill="#CECECC"/>
  <path d="M12.25 1.75H3.5C3.03604 1.75055 2.59124 1.9351 2.26317 2.26317C1.9351 2.59124 1.75055 3.03604 1.75 3.5V4.375H3.5V3.5H12.25V8.75H3.5V6.125H1.75V8.75C1.75055 9.21396 1.9351 9.65876 2.26317 9.98683C2.59124 10.3149 3.03604 10.4994 3.5 10.5H5.87934L5.44184 12.25H4.375V14H11.375V12.25H10.3082L9.87066 10.5H12.25C12.714 10.4994 13.1588 10.3149 13.4868 9.98683C13.8149 9.65876 13.9994 9.21396 14 8.75V3.5C13.9994 3.03604 13.8149 2.59124 13.4868 2.26317C13.1588 1.9351 12.714 1.75055 12.25 1.75ZM8.50434 12.25H7.24566L7.68316 10.5H8.06684L8.50434 12.25ZM12.25 21.875H3.5C3.03604 21.8755 2.59124 22.0601 2.26317 22.3882C1.9351 22.7162 1.75055 23.161 1.75 23.625V28.875C1.75055 29.339 1.9351 29.7838 2.26317 30.1118C2.59124 30.4399 3.03604 30.6245 3.5 30.625H5.87934L5.44184 32.375H4.375V34.125H11.375V32.375H10.3082L9.87066 30.625H12.25C12.714 30.6245 13.1588 30.4399 13.4868 30.1118C13.8149 29.7838 13.9994 29.339 14 28.875V23.625C13.9994 23.161 13.8149 22.7162 13.4868 22.3882C13.1588 22.0601 12.714 21.8755 12.25 21.875ZM8.50434 32.375H7.24566L7.68316 30.625H8.06684L8.50434 32.375ZM12.25 28.875H3.5V23.625H12.25L12.2511 28.875H12.25ZM12.25 42H3.5C3.03604 42.0005 2.59124 42.1851 2.26317 42.5132C1.9351 42.8412 1.75055 43.286 1.75 43.75V49C1.75055 49.464 1.9351 49.9088 2.26317 50.2368C2.59124 50.5649 3.03604 50.7495 3.5 50.75H5.87934L5.44184 52.5H4.375V54.25H11.375V52.5H10.3082L9.87066 50.75H12.25C12.714 50.7495 13.1588 50.5649 13.4868 50.2368C13.8149 49.9088 13.9994 49.464 14 49V43.75C13.9994 43.286 13.8149 42.8412 13.4868 42.5132C13.1588 42.1851 12.714 42.0005 12.25 42ZM8.50434 52.5H7.24566L7.68316 50.75H8.06684L8.50434 52.5ZM12.25 49H3.5V43.75H12.25L12.2511 49H12.25ZM52.5 1.75H43.75C43.286 1.75055 42.8412 1.9351 42.5132 2.26317C42.1851 2.59124 42.0005 3.03604 42 3.5V8.75C42.0005 9.21396 42.1851 9.65876 42.5132 9.98683C42.8412 10.3149 43.286 10.4994 43.75 10.5H46.1293L45.6918 12.25H44.625V14H51.625V12.25H50.5582L50.1207 10.5H52.5C52.964 10.4994 53.4088 10.3149 53.7368 9.98683C54.0649 9.65876 54.2495 9.21396 54.25 8.75V3.5C54.2495 3.03604 54.0649 2.59124 53.7368 2.26317C53.4088 1.9351 52.964 1.75055 52.5 1.75ZM48.7543 12.25H47.4957L47.9332 10.5H48.3168L48.7543 12.25ZM52.5 8.75H43.75V3.5H52.5L52.5011 8.75H52.5ZM52.5 21.875H43.75C43.286 21.8755 42.8412 22.0601 42.5132 22.3882C42.1851 22.7162 42.0005 23.161 42 23.625V28.875C42.0005 29.339 42.1851 29.7838 42.5132 30.1118C42.8412 30.4399 43.286 30.6245 43.75 30.625H46.1293L45.6918 32.375H44.625V34.125H51.625V32.375H50.5582L50.1207 30.625H52.5C52.964 30.6245 53.4088 30.4399 53.7368 30.1118C54.0649 29.7838 54.2495 29.339 54.25 28.875V23.625C54.2495 23.161 54.0649 22.7162 53.7368 22.3882C53.4088 22.0601 52.964 21.8755 52.5 21.875ZM48.7543 32.375H47.4957L47.9332 30.625H48.3168L48.7543 32.375ZM52.5 28.875H43.75V23.625H52.5L52.5011 28.875H52.5ZM52.5 42H43.75C43.286 42.0005 42.8412 42.1851 42.5132 42.5132C42.1851 42.8412 42.0005 43.286 42 43.75V49C42.0005 49.464 42.1851 49.9088 42.5132 50.2368C42.8412 50.5649 43.286 50.7495 43.75 50.75H46.1293L45.6918 52.5H44.625V54.25H51.625V52.5H50.5582L50.1207 50.75H52.5C52.964 50.7495 53.4088 50.5649 53.7368 50.2368C54.0649 49.9088 54.2495 49.464 54.25 49V48.125H52.5V49H43.75V43.75H52.5V46.375H54.25V43.75C54.2495 43.286 54.0649 42.8412 53.7368 42.5132C53.4088 42.1851 52.964 42.0005 52.5 42ZM48.3168 50.75L48.7543 52.5H47.4957L47.9332 50.75H48.3168ZM35.875 17.0274L41.6944 12.0399L40.5556 10.7107L35.8705 14.7264C35.8318 14.0573 35.539 13.4283 35.0518 12.968C34.5647 12.5077 33.9202 12.2508 33.25 12.25H22.75C22.0798 12.2508 21.4353 12.5077 20.9482 12.968C20.461 13.4283 20.1682 14.0573 20.1295 14.7264L15.4444 10.7107L14.3056 12.0393L20.125 17.0274V22.75H21.875V21.7245C22.1559 21.8242 22.4519 21.8751 22.75 21.875H33.25C33.5481 21.8751 33.8441 21.8242 34.125 21.7245V26.25C34.1247 26.482 34.0325 26.7044 33.8684 26.8684C33.7044 27.0325 33.482 27.1247 33.25 27.125H22.75C22.518 27.1247 22.2956 27.0325 22.1316 26.8684C21.9675 26.7044 21.8753 26.482 21.875 26.25V24.5H20.125V26.25H15.75V28H20.125V39.8875L15.1313 44.8813L16.3687 46.1187L20.6562 41.8312C20.9006 42.1554 21.2169 42.4184 21.5803 42.5996C21.9436 42.7807 22.344 42.875 22.75 42.875H33.25C33.656 42.875 34.0564 42.7807 34.4197 42.5995C34.783 42.4184 35.0993 42.1554 35.3437 41.8312L39.6312 46.1187L40.8686 44.8813L35.875 39.8875V28H40.25V26.25H35.875V17.0274ZM33.25 41.125H22.75C22.518 41.1247 22.2956 41.0325 22.1316 40.8684C21.9675 40.7044 21.8753 40.482 21.875 40.25V35.7245C22.1559 35.8242 22.4519 35.8751 22.75 35.875H33.25C33.5481 35.8751 33.8441 35.8242 34.125 35.7245V40.25C34.1247 40.482 34.0325 40.7044 33.8684 40.8684C33.7044 41.0325 33.482 41.1247 33.25 41.125ZM34.125 33.25C34.1247 33.482 34.0325 33.7044 33.8684 33.8684C33.7044 34.0325 33.482 34.1247 33.25 34.125H22.75C22.518 34.1247 22.2956 34.0325 22.1316 33.8684C21.9675 33.7044 21.8753 33.482 21.875 33.25V28.7245C22.1559 28.8242 22.4519 28.8751 22.75 28.875H33.25C33.5481 28.8751 33.8441 28.8242 34.125 28.7245V33.25ZM33.25 20.125H22.75C22.518 20.1247 22.2956 20.0325 22.1316 19.8684C21.9675 19.7044 21.8753 19.482 21.875 19.25V14.875C21.8753 14.643 21.9675 14.4206 22.1316 14.2566C22.2956 14.0925 22.518 14.0003 22.75 14H33.25C33.482 14.0003 33.7044 14.0925 33.8684 14.2566C34.0325 14.4206 34.1247 14.643 34.125 14.875V19.25C34.1247 19.482 34.0325 19.7044 33.8684 19.8684C33.7044 20.0325 33.482 20.1247 33.25 20.125ZM25.375 23.625V25.375H23.625V23.625H25.375ZM32.375 23.625V25.375H27.125V23.625H32.375ZM23.625 30.625H25.375V32.375H23.625V30.625ZM27.125 30.625H32.375V32.375H27.125V30.625ZM23.625 37.625H25.375V39.375H23.625V37.625ZM27.125 37.625H32.375V39.375H27.125V37.625Z" fill="black"/>
</svg>