<svg xmlns="http://www.w3.org/2000/svg" width="98" height="97" viewBox="0 0 98 97" fill="none">
  <path d="M84.9629 77.1995C83.9439 79.2609 73.8749 80.8025 61.9044 81.0025C67.6692 77.1984 72.9954 73.3627 76.8845 70.3675C77.4215 69.9247 80.1073 67.3969 77.0741 63.2731C57.0527 79.5418 34.195 91.6578 30.1614 90.8348C26.0345 87.5535 20.119 50.0868 21.389 23.5153C21.4782 21.2212 21.7662 18.0774 21.7662 18.0774C22.8087 7.07037 25.0115 5.72755 25.0269 5.72144C27.1221 4.93925 35.3933 9.37063 49.2346 23.8792C47.04 23.2775 44.831 22.7025 42.6302 22.1571C38.491 21.1311 30.8041 19.3187 26.831 18.7765C25.6727 20.4248 26.0161 23.9561 29.5505 24.854C37.5787 26.3885 47.0082 28.7483 56.2614 31.5856C56.2614 31.5856 62.7069 33.5947 66.0475 34.8002C69.0817 35.8652 72.0288 36.9723 74.8292 38.1049C90.4254 44.4244 91.4454 46.9788 91.5837 47.6748C91.7139 48.3402 91.6186 50.3492 82.9836 58.2166C78.8156 51.3957 73.4751 44.1333 68.4821 37.8334C64.8554 36.6709 60.7665 36.7826 62.8924 39.4569L62.8832 39.456C69.6783 47.8543 75.0567 55.5739 78.8136 61.8391C78.8136 61.8391 80.2999 64.2028 81.5412 66.6599C84.4175 72.106 85.6168 75.8782 84.9629 77.1995ZM97.0094 47.1756C96.7223 44.0503 93.5026 41.052 86.5722 37.453C79.9975 34.0396 70.1508 30.2366 59.3375 26.8468C58.7676 26.1959 58.2263 25.587 57.721 25.0252C46.2486 12.292 30.9374 -2.28122 23.1316 0.613548C21.6463 1.16399 17.7777 2.6022 16.3396 17.6008C11.9801 17.3968 8.38103 17.7473 6.26845 18.9631C-3.30352 24.4594 -0.24378 54.0209 4.45409 74.6738C5.80816 79.429 11.0524 78.7401 11.0524 78.7401C3.84309 51.2061 4.01641 26.5382 8.9797 23.6875C10.1585 23.01 12.6063 22.8019 15.9644 22.9875C15.822 25.9858 15.7636 29.3971 15.8056 33.2739C15.9459 45.9887 17.2201 60.6992 19.2159 72.6236C22.8035 94.0606 26.6517 95.3932 28.2947 95.9621C28.8432 96.1506 29.4849 96.2419 30.2086 96.2419C35.2467 96.2419 44.2354 91.8619 53.3974 86.3676C63.7955 86.752 86.3262 86.7264 89.8453 79.6156C91.5469 76.1785 89.552 70.0672 85.7675 63.0435C97.5044 52.5644 97.1405 48.6231 97.0094 47.1756Z" fill="#EB610D"/>
</svg>