<svg xmlns="http://www.w3.org/2000/svg" width="32" height="32" viewBox="0 0 32 32" fill="none">
  <path d="M28.0159 25.653C27.6799 26.3401 24.3597 26.854 20.4125 26.9207C22.3134 25.6527 24.0697 24.3741 25.3521 23.3757C25.5292 23.2281 26.4148 22.3855 25.4146 21.0109C18.8127 26.4338 11.2756 30.4724 9.9455 30.1981C8.5847 29.1043 6.63408 16.6154 7.05287 7.75827C7.08227 6.99358 7.17725 5.94565 7.17725 5.94565C7.52099 2.27663 8.24736 1.82902 8.25245 1.82698C8.94333 1.56625 11.6707 3.04338 16.2348 7.87957C15.5111 7.67901 14.7827 7.48735 14.057 7.30555C12.6921 6.96353 10.1574 6.35942 8.84733 6.17866C8.46538 6.7281 8.57862 7.90519 9.74406 8.20451C12.3913 8.71601 15.5006 9.50259 18.5518 10.4484C18.5518 10.4484 20.6772 11.1181 21.7787 11.5199C22.7792 11.8749 23.751 12.2439 24.6744 12.6215C29.8171 14.728 30.1534 15.5794 30.1991 15.8114C30.242 16.0332 30.2106 16.7029 27.3632 19.3254C25.9889 17.0518 24.2279 14.631 22.5815 12.531C21.3856 12.1435 20.0373 12.1807 20.7383 13.0721L20.7353 13.0718C22.9759 15.8713 24.7494 18.4445 25.9882 20.5329C25.9882 20.5329 26.4783 21.3208 26.8876 22.1398C27.8361 23.9552 28.2315 25.2126 28.0159 25.653ZM31.9881 15.645C31.8935 14.6033 30.8318 13.6038 28.5466 12.4042C26.3786 11.2664 23.1317 9.99872 19.5661 8.86876C19.3782 8.6518 19.1997 8.44884 19.0331 8.26158C15.2501 4.01717 10.2014 -0.840569 7.62749 0.124355C7.1377 0.307835 5.86208 0.787239 5.38787 5.78676C3.95034 5.71876 2.76358 5.8356 2.06698 6.24087C-1.08931 8.07298 -0.0803845 17.9268 1.4687 24.8111C1.9152 26.3962 3.64445 26.1665 3.64445 26.1665C1.26723 16.9885 1.32438 8.76592 2.96099 7.81569C3.3497 7.58983 4.15683 7.52047 5.26416 7.58232C5.21718 8.58176 5.19792 9.71887 5.21177 11.0111C5.25805 15.2494 5.67821 20.1529 6.33629 24.1277C7.5193 31.2734 8.78819 31.7176 9.32998 31.9072C9.51085 31.97 9.72243 32.0005 9.96106 32.0005C11.6223 32.0005 14.5863 30.5405 17.6074 28.709C21.0361 28.8372 28.4654 28.8286 29.6258 26.4584C30.1869 25.3127 29.5291 23.2756 28.2812 20.9343C32.1514 17.4413 32.0314 16.1275 31.9881 15.645Z" fill="#EB610D"/>
</svg>