<svg xmlns="http://www.w3.org/2000/svg" width="24" height="24" viewBox="0 0 24 24" fill="none">
  <path d="M22.4229 3.3589C22.3798 3.04946 22.1572 2.79493 21.8562 2.71127L12.2102 0.0287059C12.0727 -0.00956863 11.9274 -0.00956863 11.7898 0.0287059L2.14378 2.71127C1.84281 2.79493 1.62017 3.04936 1.57708 3.3589C1.52114 3.7612 0.244797 13.2667 3.51852 17.9953C6.78838 22.7184 11.6121 23.9287 11.8158 23.978C11.8764 23.9926 11.9381 23.9998 12 23.9998C12.0619 23.9998 12.1236 23.9925 12.1841 23.978C12.388 23.9287 17.2117 22.7184 20.4815 17.9953C23.7552 13.2668 22.4788 3.76131 22.4229 3.3589ZM18.2204 8.90829L11.6409 15.4878C11.4878 15.6409 11.287 15.7176 11.0863 15.7176C10.8856 15.7176 10.6848 15.641 10.5318 15.4878L6.46367 11.4198C6.31654 11.2727 6.23392 11.0732 6.23392 10.8652C6.23392 10.6572 6.31664 10.4577 6.46367 10.3106L7.27141 9.5029C7.57771 9.19671 8.07434 9.1966 8.38054 9.5029L11.0863 12.2087L16.3036 6.99132C16.4506 6.84418 16.6501 6.76157 16.8581 6.76157C17.0661 6.76157 17.2657 6.84418 17.4127 6.99132L18.2204 7.79906C18.5267 8.10536 18.5267 8.60199 18.2204 8.90829Z" fill="#004954"/>
</svg>