<svg xmlns="http://www.w3.org/2000/svg" width="131" height="32" viewBox="0 0 131 32" fill="none">
  <path d="M28.0159 25.6525C27.6799 26.3396 24.3597 26.8535 20.4125 26.9202C22.3134 25.6522 24.0697 24.3736 25.3521 23.3752C25.5292 23.2276 26.4148 22.385 25.4146 21.0104C18.8127 26.4333 11.2756 30.472 9.9455 30.1976C8.5847 29.1038 6.63408 16.6149 7.05287 7.75778C7.08227 6.99309 7.17725 5.94516 7.17725 5.94516C7.52099 2.27614 8.24736 1.82853 8.25245 1.82649C8.94333 1.56577 11.6707 3.04289 16.2348 7.87908C15.5111 7.67852 14.7827 7.48686 14.057 7.30506C12.6921 6.96304 10.1574 6.35893 8.84733 6.17817C8.46538 6.72761 8.57862 7.9047 9.74406 8.20402C12.3913 8.71552 15.5006 9.5021 18.5518 10.4479C18.5518 10.4479 20.6772 11.1176 21.7787 11.5194C22.7792 11.8744 23.751 12.2434 24.6744 12.621C29.8171 14.7275 30.1534 15.579 30.1991 15.811C30.242 16.0327 30.2106 16.7024 27.3632 19.3249C25.9889 17.0513 24.2279 14.6305 22.5815 12.5305C21.3856 12.143 20.0373 12.1802 20.7383 13.0717L20.7353 13.0713C22.9759 15.8708 24.7494 18.444 25.9882 20.5324C25.9882 20.5324 26.4783 21.3203 26.8876 22.1393C27.8361 23.9547 28.2315 25.2121 28.0159 25.6525ZM31.9881 15.6446C31.8935 14.6028 30.8318 13.6033 28.5466 12.4037C26.3786 11.2659 23.1317 9.99823 19.5661 8.86827C19.3782 8.65131 19.1997 8.44835 19.0331 8.26109C15.2501 4.01668 10.2014 -0.841057 7.62749 0.123867C7.1377 0.307346 5.86208 0.786751 5.38787 5.78627C3.95034 5.71827 2.76358 5.83512 2.06698 6.24038C-1.08931 8.0725 -0.0803845 17.9263 1.4687 24.8106C1.9152 26.3957 3.64445 26.1661 3.64445 26.1661C1.26723 16.9881 1.32438 8.76543 2.96099 7.8152C3.3497 7.58934 4.15683 7.51999 5.26416 7.58183C5.21718 8.58127 5.19792 9.71839 5.21177 11.0106C5.25805 15.2489 5.67821 20.1524 6.33629 24.1272C7.5193 31.2729 8.78819 31.7171 9.32998 31.9067C9.51085 31.9696 9.72243 32 9.96106 32C11.6223 32 14.5863 30.54 17.6074 28.7085C21.0361 28.8367 28.4654 28.8281 29.6258 26.4579C30.1869 25.3122 29.5291 23.2751 28.2812 20.9339C32.1514 17.4408 32.0314 16.127 31.9881 15.6446Z" fill="#EB610D"/>
  <mask id="path-2-inside-1_2772_5164" fill="white">
    <path d="M56.9754 8.20631H59.1669L62.4101 20.1936L62.6249 21.204L62.8176 20.2359L65.9727 8H67.9936L63.806 23H61.3997L58.2005 11.3222L58.0271 10.4572L57.8564 11.2825L54.6792 23H52.1876L48 8H50.0621L53.2393 20.1725L53.41 21.1855L53.6468 20.1725L56.9754 8.20631ZM74.7994 8H76.7982L82.423 23H80.2342L75.8732 10.9095L75.7245 10.3118L75.5731 10.9095L73.1668 17.5327L72.9328 17.9665L73.1888 17.9242H76.0879C76.6037 17.9242 76.9974 18.0723 77.269 18.3685C77.5407 18.6648 77.7554 19.0122 77.9133 19.4107H72.5033L71.2148 23H69.1747L74.7994 8ZM86.0957 8L91.1202 16.0462V23H89.1242V16.6255L83.7775 8H86.0957ZM91.357 12.642L94.0634 8H96.3182L91.7232 15.2421C91.5929 15.0781 91.4745 14.8965 91.368 14.6972C91.2597 14.4962 91.1808 14.2864 91.1313 14.0677C91.0817 13.8473 91.0707 13.6163 91.0982 13.3747C91.1276 13.1349 91.2139 12.8907 91.357 12.642ZM103.727 8H105.723L111.351 23H109.159L104.801 10.9095L104.649 10.3118L104.501 10.9095L102.094 17.5327L101.858 17.9665L102.116 17.9242H105.016C105.531 17.9242 105.925 18.0723 106.197 18.3685C106.468 18.6648 106.683 19.0122 106.841 19.4107H101.428L100.14 23H98.0996L103.727 8ZM113.583 23L115.323 8H117.964L122.151 20.0508L122.303 20.6882L122.451 20.0508L126.639 8H129.282L131 23H129.045L127.82 10.9915L127.757 10.1054L127.498 10.9915L123.247 22.7937H121.336L117.063 10.973L116.783 10.1054L116.719 10.973L115.516 23H113.583Z"/>
  </mask>
  <path d="M56.9754 8.20631H59.1669L62.4101 20.1936L62.6249 21.204L62.8176 20.2359L65.9727 8H67.9936L63.806 23H61.3997L58.2005 11.3222L58.0271 10.4572L57.8564 11.2825L54.6792 23H52.1876L48 8H50.0621L53.2393 20.1725L53.41 21.1855L53.6468 20.1725L56.9754 8.20631ZM74.7994 8H76.7982L82.423 23H80.2342L75.8732 10.9095L75.7245 10.3118L75.5731 10.9095L73.1668 17.5327L72.9328 17.9665L73.1888 17.9242H76.0879C76.6037 17.9242 76.9974 18.0723 77.269 18.3685C77.5407 18.6648 77.7554 19.0122 77.9133 19.4107H72.5033L71.2148 23H69.1747L74.7994 8ZM86.0957 8L91.1202 16.0462V23H89.1242V16.6255L83.7775 8H86.0957ZM91.357 12.642L94.0634 8H96.3182L91.7232 15.2421C91.5929 15.0781 91.4745 14.8965 91.368 14.6972C91.2597 14.4962 91.1808 14.2864 91.1313 14.0677C91.0817 13.8473 91.0707 13.6163 91.0982 13.3747C91.1276 13.1349 91.2139 12.8907 91.357 12.642ZM103.727 8H105.723L111.351 23H109.159L104.801 10.9095L104.649 10.3118L104.501 10.9095L102.094 17.5327L101.858 17.9665L102.116 17.9242H105.016C105.531 17.9242 105.925 18.0723 106.197 18.3685C106.468 18.6648 106.683 19.0122 106.841 19.4107H101.428L100.14 23H98.0996L103.727 8ZM113.583 23L115.323 8H117.964L122.151 20.0508L122.303 20.6882L122.451 20.0508L126.639 8H129.282L131 23H129.045L127.82 10.9915L127.757 10.1054L127.498 10.9915L123.247 22.7937H121.336L117.063 10.973L116.783 10.1054L116.719 10.973L115.516 23H113.583Z" fill="#004954"/>
  <path d="M56.9754 8.20631V4.20631H53.9362L53.1217 7.13434L56.9754 8.20631ZM59.1669 8.20631L63.0281 7.16165L62.2285 4.20631H59.1669V8.20631ZM62.4101 20.1936L66.3227 19.362L66.2999 19.2548L66.2713 19.149L62.4101 20.1936ZM62.6249 21.204L58.7123 22.0356L66.5479 21.985L62.6249 21.204ZM62.8176 20.2359L58.9443 19.2372L58.9164 19.3454L58.8946 19.455L62.8176 20.2359ZM65.9727 8V4H62.8733L62.0994 7.00124L65.9727 8ZM67.9936 8L71.8463 9.07556L73.2632 4H67.9936V8ZM63.806 23V27H66.8422L67.6587 24.0756L63.806 23ZM61.3997 23L57.5419 24.0569L58.3481 27H61.3997V23ZM58.2005 11.3222L54.2786 12.1087L54.3059 12.245L54.3427 12.379L58.2005 11.3222ZM58.0271 10.4572L61.949 9.67075L54.11 9.64702L58.0271 10.4572ZM57.8564 11.2825L61.717 12.3293L61.7488 12.2119L61.7735 12.0927L57.8564 11.2825ZM54.6792 23V27H57.7391L58.5398 24.0468L54.6792 23ZM52.1876 23L48.3349 24.0756L49.1513 27H52.1876V23ZM48 8V4H42.7304L44.1473 9.07556L48 8ZM50.0621 8L53.9325 6.98979L53.1521 4H50.0621V8ZM53.2393 20.1725L57.1837 19.5078L57.1543 19.3334L57.1096 19.1623L53.2393 20.1725ZM53.41 21.1855L49.4656 21.8501L57.305 22.0959L53.41 21.1855ZM53.6468 20.1725L49.7931 19.1005L49.7707 19.1809L49.7517 19.2621L53.6468 20.1725ZM74.7994 8V4H72.0274L71.0541 6.59556L74.7994 8ZM76.7982 8L80.5436 6.59556L79.5703 4H76.7982V8ZM82.423 23V27H88.1949L86.1683 21.5956L82.423 23ZM80.2342 23L76.4715 24.3572L77.4247 27H80.2342V23ZM75.8732 10.9095L71.9914 11.875L72.0409 12.0739L72.1104 12.2668L75.8732 10.9095ZM75.7245 10.3118L79.6062 9.34634L71.847 9.32954L75.7245 10.3118ZM75.5731 10.9095L79.3326 12.2754L79.4012 12.0866L79.4506 11.8918L75.5731 10.9095ZM73.1668 17.5327L76.6872 19.4319L76.8263 19.174L76.9264 18.8986L73.1668 17.5327ZM72.9328 17.9665L69.4124 16.0673L65.5415 23.2425L73.5851 21.913L72.9328 17.9665ZM73.1888 17.9242V13.9242H72.8605L72.5365 13.9777L73.1888 17.9242ZM77.9133 19.4107V23.4107H83.8L81.6322 17.9377L77.9133 19.4107ZM72.5033 19.4107V15.4107H69.6893L68.7385 18.0592L72.5033 19.4107ZM71.2148 23V27H74.0288L74.9796 24.3515L71.2148 23ZM69.1747 23L65.4293 21.5956L63.4028 27H69.1747V23ZM86.0957 8L89.4885 5.88132L88.3137 4H86.0957V8ZM91.1202 16.0462H95.1202V14.8999L94.5131 13.9275L91.1202 16.0462ZM91.1202 23V27H95.1202V23H91.1202ZM89.1242 23H85.1242V27H89.1242V23ZM89.1242 16.6255H93.1242V15.4863L92.524 14.518L89.1242 16.6255ZM83.7775 8V4H76.5919L80.3777 10.1074L83.7775 8ZM91.357 12.642L87.9014 10.6274L87.896 10.6367L87.8906 10.646L91.357 12.642ZM94.0634 8V4H91.7653L90.6078 5.98534L94.0634 8ZM96.3182 8L99.6958 10.143L103.593 4H96.3182V8ZM91.7232 15.2421L88.5916 17.7307L92.089 22.1318L95.1007 17.3851L91.7232 15.2421ZM91.368 14.6972L94.8961 12.8123L94.8896 12.8002L91.368 14.6972ZM91.1313 14.0677L87.2287 14.9451L87.2302 14.9519L91.1313 14.0677ZM91.0982 13.3747L87.1279 12.8885L87.1258 12.9051L87.1239 12.9218L91.0982 13.3747ZM103.727 8V4H100.955L99.9819 6.59496L103.727 8ZM105.723 8L109.468 6.59496L108.495 4H105.723V8ZM111.351 23V27H117.123L115.096 21.595L111.351 23ZM109.159 23L105.396 24.3565L106.349 27H109.159V23ZM104.801 10.9095L100.923 11.8918L100.971 12.0817L101.038 12.266L104.801 10.9095ZM104.649 10.3118L108.527 9.32953L100.768 9.34636L104.649 10.3118ZM104.501 10.9095L108.26 12.2754L108.332 12.0784L108.382 11.8749L104.501 10.9095ZM102.094 17.5327L105.605 19.4491L105.751 19.1833L105.854 18.8986L102.094 17.5327ZM101.858 17.9665L98.3466 16.0501L94.4248 23.2351L102.503 21.9141L101.858 17.9665ZM102.116 17.9242V13.9242H101.792L101.471 13.9766L102.116 17.9242ZM106.841 19.4107V23.4107H112.728L110.56 17.9377L106.841 19.4107ZM101.428 19.4107V15.4107H98.6141L97.6634 18.0592L101.428 19.4107ZM100.14 23V27H102.954L103.904 24.3515L100.14 23ZM98.0996 23L94.3544 21.595L92.3267 27H98.0996V23ZM113.583 23L109.61 22.5391L109.093 27H113.583V23ZM115.323 8V4H111.761L111.35 7.53909L115.323 8ZM117.964 8L121.742 6.68704L120.808 4H117.964V8ZM122.151 20.0508L126.043 19.1263L125.996 18.9292L125.93 18.7378L122.151 20.0508ZM122.303 20.6882L118.411 21.6127L126.198 21.5968L122.303 20.6882ZM122.451 20.0508L118.673 18.7378L118.604 18.9369L118.556 19.1422L122.451 20.0508ZM126.639 8V4H123.794L122.861 6.68704L126.639 8ZM129.282 8L133.256 7.54485L132.85 4H129.282V8ZM131 23V27H135.484L134.974 22.5448L131 23ZM129.045 23L125.066 23.406L125.433 27H129.045V23ZM127.82 10.9915L123.83 11.2767L123.835 11.3372L123.841 11.3975L127.82 10.9915ZM127.757 10.1054L131.747 9.82031L123.917 8.98406L127.757 10.1054ZM127.498 10.9915L131.261 12.347L131.303 12.2311L131.338 12.1129L127.498 10.9915ZM123.247 22.7937V26.7937H126.058L127.01 24.1492L123.247 22.7937ZM121.336 22.7937L117.575 24.1535L118.529 26.7937H121.336V22.7937ZM117.063 10.973L113.258 12.2049L113.279 12.2692L113.302 12.3328L117.063 10.973ZM116.783 10.1054L120.588 8.87361L112.793 9.81427L116.783 10.1054ZM116.719 10.973L120.699 11.3712L120.705 11.3177L120.709 11.2642L116.719 10.973ZM115.516 23V27H119.136L119.496 23.3982L115.516 23ZM56.9754 12.2063H59.1669V4.20631H56.9754V12.2063ZM55.3057 9.25098L58.549 21.2383L66.2713 19.149L63.0281 7.16165L55.3057 9.25098ZM58.4975 21.0252L58.7123 22.0356L66.5375 20.3724L66.3227 19.362L58.4975 21.0252ZM66.5479 21.985L66.7406 21.0169L58.8946 19.455L58.7019 20.423L66.5479 21.985ZM66.6909 21.2347L69.846 8.99876L62.0994 7.00124L58.9443 19.2372L66.6909 21.2347ZM65.9727 12H67.9936V4H65.9727V12ZM64.1409 6.92444L59.9533 21.9244L67.6587 24.0756L71.8463 9.07556L64.1409 6.92444ZM63.806 19H61.3997V27H63.806V19ZM65.2576 21.9431L62.0584 10.2653L54.3427 12.379L57.5419 24.0569L65.2576 21.9431ZM62.1224 10.5357L61.949 9.67075L54.1052 11.2437L54.2786 12.1087L62.1224 10.5357ZM54.11 9.64702L53.9393 10.4723L61.7735 12.0927L61.9442 11.2675L54.11 9.64702ZM53.9958 10.2357L50.8186 21.9532L58.5398 24.0468L61.717 12.3293L53.9958 10.2357ZM54.6792 19H52.1876V27H54.6792V19ZM56.0403 21.9244L51.8527 6.92444L44.1473 9.07556L48.3349 24.0756L56.0403 21.9244ZM48 12H50.0621V4H48V12ZM46.1918 9.01021L49.369 21.1827L57.1096 19.1623L53.9325 6.98979L46.1918 9.01021ZM49.2949 20.8371L49.4656 21.8501L57.3544 20.5209L57.1837 19.5078L49.2949 20.8371ZM57.305 22.0959L57.5418 21.0828L49.7517 19.2621L49.515 20.2751L57.305 22.0959ZM57.5004 21.2444L60.829 9.27828L53.1217 7.13434L49.7931 19.1005L57.5004 21.2444ZM74.7994 12H76.7982V4H74.7994V12ZM73.0529 9.40444L78.6776 24.4044L86.1683 21.5956L80.5436 6.59556L73.0529 9.40444ZM82.423 19H80.2342V27H82.423V19ZM83.9969 21.6428L79.6359 9.55233L72.1104 12.2668L76.4715 24.3572L83.9969 21.6428ZM79.7549 9.94412L79.6062 9.34634L71.8427 11.2772L71.9914 11.875L79.7549 9.94412ZM71.847 9.32954L71.6955 9.92732L79.4506 11.8918L79.602 11.294L71.847 9.32954ZM71.8135 9.54365L69.4072 16.1668L76.9264 18.8986L79.3326 12.2754L71.8135 9.54365ZM69.6464 15.6335L69.4124 16.0673L76.4531 19.8657L76.6872 19.4319L69.6464 15.6335ZM73.5851 21.913L73.8411 21.8706L72.5365 13.9777L72.2805 14.02L73.5851 21.913ZM73.1888 21.9242H76.0879V13.9242H73.1888V21.9242ZM76.0879 21.9242C75.9699 21.9242 75.7039 21.9079 75.3615 21.7791C74.9988 21.6426 74.6293 21.4084 74.3208 21.0719L80.2172 15.6652C78.9867 14.3233 77.3876 13.9242 76.0879 13.9242V21.9242ZM74.3208 21.0719C74.284 21.0318 74.2541 20.9913 74.2314 20.9546C74.209 20.9183 74.1979 20.8927 74.1944 20.8837L81.6322 17.9377C81.3066 17.1158 80.84 16.3444 80.2172 15.6652L74.3208 21.0719ZM77.9133 15.4107H72.5033V23.4107H77.9133V15.4107ZM68.7385 18.0592L67.45 21.6485L74.9796 24.3515L76.268 20.7622L68.7385 18.0592ZM71.2148 19H69.1747V27H71.2148V19ZM72.92 24.4044L78.5448 9.40444L71.0541 6.59556L65.4293 21.5956L72.92 24.4044ZM82.7029 10.1187L87.7274 18.1649L94.5131 13.9275L89.4885 5.88132L82.7029 10.1187ZM87.1202 16.0462V23H95.1202V16.0462H87.1202ZM91.1202 19H89.1242V27H91.1202V19ZM93.1242 23V16.6255H85.1242V23H93.1242ZM92.524 14.518L87.1773 5.89256L80.3777 10.1074L85.7244 18.7329L92.524 14.518ZM83.7775 12H86.0957V4H83.7775V12ZM94.8126 14.6567L97.519 10.0147L90.6078 5.98534L87.9014 10.6274L94.8126 14.6567ZM94.0634 12H96.3182V4H94.0634V12ZM92.9407 5.857L88.3457 13.0991L95.1007 17.3851L99.6958 10.143L92.9407 5.857ZM94.8548 12.7536C94.8858 12.7925 94.8977 12.8153 94.8961 12.8123L87.84 16.5821C88.0513 16.9777 88.3 17.3637 88.5916 17.7307L94.8548 12.7536ZM94.8896 12.8002C94.9499 12.9121 95.0003 13.0424 95.0323 13.1836L87.2302 14.9519C87.3613 15.5303 87.5696 16.0803 87.8465 16.5943L94.8896 12.8002ZM95.0338 13.1903C95.0896 13.4383 95.0917 13.6588 95.0725 13.8276L87.1239 12.9218C87.0496 13.5738 87.0738 14.2563 87.2287 14.9451L95.0338 13.1903ZM95.0686 13.8609C95.0218 14.243 94.8984 14.5078 94.8234 14.638L87.8906 10.646C87.5293 11.2735 87.2334 12.0268 87.1279 12.8885L95.0686 13.8609ZM103.727 12H105.723V4H103.727V12ZM101.978 9.40504L107.605 24.405L115.096 21.595L109.468 6.59496L101.978 9.40504ZM111.351 19H109.159V27H111.351V19ZM112.922 21.6435L108.564 9.55309L101.038 12.266L105.396 24.3565L112.922 21.6435ZM108.678 9.92731L108.527 9.32953L100.772 11.294L100.923 11.8918L108.678 9.92731ZM100.768 9.34636L100.619 9.94413L108.382 11.8749L108.531 11.2772L100.768 9.34636ZM100.741 9.54364L98.3348 16.1668L105.854 18.8986L108.26 12.2754L100.741 9.54364ZM98.5834 15.6163L98.3466 16.0501L105.369 19.8829L105.605 19.4491L98.5834 15.6163ZM102.503 21.9141L102.762 21.8717L101.471 13.9766L101.212 14.0189L102.503 21.9141ZM102.116 21.9242H105.016V13.9242H102.116V21.9242ZM105.016 21.9242C104.898 21.9242 104.632 21.9079 104.289 21.7791C103.926 21.6426 103.557 21.4084 103.248 21.0719L109.145 15.6652C107.914 14.3233 106.315 13.9242 105.016 13.9242V21.9242ZM103.248 21.0719C103.212 21.0318 103.182 20.9913 103.159 20.9546C103.137 20.9183 103.126 20.8927 103.122 20.8837L110.56 17.9377C110.234 17.1159 109.768 16.3444 109.145 15.6652L103.248 21.0719ZM106.841 15.4107H101.428V23.4107H106.841V15.4107ZM97.6634 18.0592L96.3749 21.6485L103.904 24.3515L105.193 20.7622L97.6634 18.0592ZM100.14 19H98.0996V27H100.14V19ZM101.845 24.405L107.472 9.40504L99.9819 6.59496L94.3544 21.595L101.845 24.405ZM117.557 23.4609L119.297 8.46091L111.35 7.53909L109.61 22.5391L117.557 23.4609ZM115.323 12H117.964V4H115.323V12ZM114.185 9.31296L118.373 21.3637L125.93 18.7378L121.742 6.68704L114.185 9.31296ZM118.26 20.9752L118.411 21.6127L126.194 19.7638L126.043 19.1263L118.26 20.9752ZM126.198 21.5968L126.347 20.9593L118.556 19.1422L118.407 19.7797L126.198 21.5968ZM126.23 21.3637L130.417 9.31296L122.861 6.68704L118.673 18.7378L126.23 21.3637ZM126.639 12H129.282V4H126.639V12ZM125.308 8.45515L127.026 23.4552L134.974 22.5448L133.256 7.54485L125.308 8.45515ZM131 19H129.045V27H131V19ZM133.025 22.594L131.799 10.5855L123.841 11.3975L125.066 23.406L133.025 22.594ZM131.81 10.7064L131.747 9.82031L123.767 10.3906L123.83 11.2767L131.81 10.7064ZM123.917 8.98406L123.658 9.87014L131.338 12.1129L131.596 11.2268L123.917 8.98406ZM123.735 9.63606L119.484 21.4382L127.01 24.1492L131.261 12.347L123.735 9.63606ZM123.247 18.7937H121.336V26.7937H123.247V18.7937ZM125.098 21.4339L120.825 9.61322L113.302 12.3328L117.575 24.1535L125.098 21.4339ZM120.869 9.74118L120.588 8.87361L112.977 11.3373L113.258 12.2049L120.869 9.74118ZM112.793 9.81427L112.73 10.6818L120.709 11.2642L120.772 10.3966L112.793 9.81427ZM112.739 10.5749L111.536 22.6018L119.496 23.3982L120.699 11.3712L112.739 10.5749ZM115.516 19H113.583V27H115.516V19Z" fill="#004954" mask="url(#path-2-inside-1_2772_5164)"/>
</svg>