<svg xmlns="http://www.w3.org/2000/svg" width="248" height="48" viewBox="0 0 248 48" fill="none">
  <path d="M27.5684 1.47929H34.0941L43.7515 38.6331L44.3909 41.7647L44.9648 38.7642L54.3598 0.839844H60.3772L47.9079 47.3312H40.7428L31.2166 11.1366L30.7001 8.45587L30.1918 11.0137L20.7312 47.3312H13.312L0.842651 0.839844H6.98302L16.4436 38.5675L16.9519 41.7073L17.6569 38.5675L27.5684 1.47929ZM80.6429 0.839844H86.5947L103.343 47.3312H96.8259L83.8402 9.85775L83.3975 8.00498L82.9466 9.85775L75.7814 30.3858L75.0846 31.7303L75.847 31.5991H84.4796C86.0154 31.5991 87.1877 32.0582 87.9966 32.9764C88.8055 33.8946 89.4449 34.9712 89.9149 36.2064H73.8057L69.969 47.3312H63.8942L80.6429 0.839844ZM114.28 0.839844L129.241 25.7784V47.3312H123.298V27.5738L107.377 0.839844H114.28ZM129.946 15.2275L138.005 0.839844H144.719L131.037 23.2862C130.649 22.7779 130.296 22.215 129.979 21.5974C129.657 20.9744 129.422 20.324 129.274 19.6463C129.126 18.9631 129.094 18.2471 129.176 17.4984C129.263 16.7551 129.52 15.9981 129.946 15.2275ZM166.78 0.839844H172.724L189.481 47.3312H182.955L169.978 9.85775L169.527 8.00498L169.084 9.85775L161.919 30.3858L161.214 31.7303L161.984 31.5991H170.617C172.153 31.5991 173.325 32.0582 174.134 32.9764C174.943 33.8946 175.582 34.9712 176.052 36.2064H159.935L156.098 47.3312H150.023L166.78 0.839844ZM196.129 47.3312L201.311 0.839844H209.173L221.642 38.1904L222.093 40.1661L222.536 38.1904L235.005 0.839844H242.875L247.991 47.3312H242.17L238.522 10.1119L238.333 7.36553L237.563 10.1119L224.905 46.6918H219.215L206.492 10.0545L205.656 7.36553L205.467 10.0545L201.885 47.3312H196.129Z" fill="#004954"/>
</svg>